<svg width="85" height="121" viewBox="0 0 85 121" fill="none" xmlns="http://www.w3.org/2000/svg"><path d="M11.318 15.291c-15.015 18.969-6.472 42.698.035 40.695l-.035-.05C7.614 50.645 6.094 45.494 5.884 40.83c-.378-8.38 1.622-16.024 6.47-18.395v-2.003c1.501-8.012 32.69-30.179 56.055-5.14 5.544 5.94 7.956 13.046 8.666 19.028.77 6.48.491 13.042-1 18.528-1.858 6.834-5.888 12.138-9.167 15.156-1.502-.835-5.505-1.703-9.51 1.502-2.283 1.828-2.9 3.656-2.325 5.008 6.95 0 11.786-3.339 13.336-5.008 11.073-9.669 11.81-20.852 11.67-30.679-.14-9.717-3.795-18.054-7.008-22.033-21.02-26.04-51.05-15.023-61.753-1.503Z" fill="#FADACD"/><path d="M61.403 76.517c4.804-.801 6.673-5.008 7.006-7.01-1.55 1.668-6.387 5.007-13.336 5.007.686 1.611 3.064 2.547 6.33 2.003Z" fill="#C88B72"/><path d="M15.514 23.303c0-1.001-1.482-2.003-3.16-.868-4.848 2.37-6.848 10.016-6.47 18.395 4.125-17.527 7.248-13.02 9.63-17.527Z" fill="#FADACD"/><path d="M5.884 40.83c.21 4.663 1.73 9.814 5.434 15.107 8.2 3.922 10.703-25.122 4.196-32.634-2.382 4.507-5.505 0-9.63 17.527Z" fill="#C88B72"/><path d="m11.353 55.986.03.095.13-.04-.078-.113-.082.058Zm-.035-40.695-.078-.062.078.062Zm61.753 1.503-.077.062.077-.062ZM68.41 69.506l-.066-.076-.007.008.073.068Zm-7.007 7.01-.016-.098.017.099Zm-4.004-7.01-.062-.078.063.078Zm9.51-1.502-.049.087.064.035.053-.049-.068-.073Zm1.501-52.713-.073.068.073-.068Zm-56.055 5.14-.098-.018-.002.01v.009h.1Zm0 2.004.044.09.012-.007-.056-.083Zm42.72 52.079-.093.039.093-.04Zm22-40.194.1-.012-.1.012Zm3.003 4.507-.1.001.1-.001Zm-4.004 14.021.097.026-.097-.026Zm-64.75 3.042c-1.558.48-3.273-.573-4.75-2.806-1.47-2.223-2.675-5.579-3.21-9.595-1.07-8.03.544-18.675 8.033-28.136l-.157-.124c-7.527 9.508-9.15 20.21-8.074 28.287.537 4.037 1.75 7.424 3.241 9.679 1.486 2.246 3.28 3.408 4.975 2.886l-.059-.19Zm.073-40.537C16.73 8.615 26.889 2.493 38.336 1.307c11.44-1.186 24.17 2.557 34.658 15.55l.155-.126C62.617 3.684 49.821-.085 38.315 1.108 26.816 2.3 16.608 8.448 11.24 15.23l.157.124ZM68.31 69.49c-.33 1.98-2.18 6.137-6.925 6.928l.033.197c4.864-.81 6.752-5.067 7.09-7.093l-.198-.032Zm-10.85.094c3.968-3.176 7.927-2.31 9.398-1.493l.098-.175c-1.532-.851-5.58-1.722-9.621 1.512l.125.156Zm11.022-54.361C56.767 2.67 43.087 1.95 32.153 5.373c-5.466 1.71-10.246 4.456-13.756 7.276-1.754 1.411-3.193 2.842-4.24 4.173-1.047 1.329-1.71 2.567-1.902 3.591l.197.037c.183-.978.824-2.186 1.862-3.505 1.036-1.316 2.463-2.736 4.209-4.14 3.49-2.806 8.25-5.54 13.69-7.242C43.088 2.16 56.684 2.874 68.335 15.36l.147-.136Zm-56.13 5.209h-.1v2.004h.2v-2.004h-.1Zm49.033 55.986c-1.62.27-3.014.172-4.084-.189-1.07-.361-1.808-.982-2.136-1.754l-.185.078c.357.839 1.15 1.492 2.257 1.865 1.108.374 2.536.472 4.18.197l-.032-.197Zm-6.22-1.944c-.549-1.288.024-3.072 2.295-4.89l-.125-.156c-2.295 1.837-2.956 3.71-2.355 5.125l.184-.078Zm13.17-5.036c-1.533 1.65-6.344 4.976-13.262 4.976v.2c6.979 0 11.842-3.352 13.409-5.04l-.147-.136Zm-57.1-13.444.035.05.163-.116-.034-.049-.164.115Zm.199-.066-.035-.049-.164.115.035.05.164-.116Zm.975-33.41c.815-.551 1.57-.577 2.116-.357.551.222.888.691.888 1.142h.2c0-.55-.404-1.082-1.013-1.328-.615-.247-1.44-.207-2.303.377l.112.166Zm-.1-.173c-2.458 1.202-4.183 3.735-5.246 7.003-1.063 3.27-1.47 7.289-1.28 11.486l.2-.009c-.189-4.181.216-8.174 1.27-11.415 1.055-3.242 2.754-5.717 5.144-6.885l-.088-.18Zm-6.526 18.49c.211 4.682 1.737 9.851 5.452 15.159l.164-.115c-3.694-5.277-5.207-10.41-5.416-15.054l-.2.01Zm9.642-17.578c-.586 1.109-1.216 1.661-1.899 2.14-.683.479-1.44.895-2.246 1.717-1.615 1.649-3.431 4.927-5.494 13.693l.194.046c2.062-8.76 3.87-11.992 5.443-13.599.788-.805 1.517-1.202 2.218-1.694.702-.491 1.356-1.066 1.96-2.21l-.176-.093Zm.013.112c1.607 1.855 2.667 5.055 3.219 8.768.55 3.709.592 7.913.174 11.76-.418 3.85-1.294 7.331-2.57 9.603-.64 1.136-1.372 1.959-2.188 2.38-.81.418-1.713.444-2.713-.034l-.086.18c1.051.503 2.02.48 2.89.031.866-.446 1.623-1.307 2.27-2.46 1.296-2.305 2.177-5.819 2.596-9.679.42-3.862.378-8.083-.175-11.81-.553-3.723-1.62-6.97-3.266-8.87l-.151.13Zm61.736 10.94c-.712-5.999-3.132-13.127-8.692-19.086l-.147.136c5.526 5.922 7.932 13.007 8.64 18.973l.199-.024Zm-4.181-17.453c3.197 3.961 6.845 12.276 6.984 21.972l.2-.002c-.14-9.739-3.802-18.098-7.029-22.095l-.155.125Zm6.984 21.972c.141 9.82-.596 20.964-11.634 30.603l.131.15c11.108-9.699 11.844-20.92 11.703-30.755l-.2.002Zm-13.002 29.25c3.29-3.029 7.331-8.348 9.195-15.204l-.193-.052c-1.852 6.812-5.87 12.1-9.138 15.108l.136.147Zm9.195-15.204c1.496-5.5 1.774-12.076 1.004-18.566l-.199.024c.768 6.47.49 13.019-.998 18.49l.193.052Z" fill="#000"/><path d="M73.972 37.458c0 17.368-14.072 31.448-31.43 31.448-17.36 0-31.432-14.08-31.432-31.448C11.11 20.09 25.182 6.01 42.54 6.01c17.36 0 31.431 14.08 31.431 31.448Z" fill="#E4CCFA" stroke="#000" stroke-width=".2"/><path fill-rule="evenodd" clip-rule="evenodd" d="M5.99 95.045C21.206 89.436 31.35 81.69 34.52 78.52c3.003-1.002 11.11-1.703 19.519 3.505 0 0 5.167 2.453 11.026 5.36-.835.506-2.703 2.018-3.504 4.022-2.507-.913-7.522-1.463-7.522 3.638 0 6.377 9.024 1.37 10.025-1.135.8-2.003 2.335-4.52 3.002-5.528 5.998 3.003 12.185 6.237 14 7.664 3.822 3.005 4.004 18.795 0 19.53-43.643 8.012-68.234 3.338-75.075 0-8.508-.501-4.504-18.87 0-20.531Z" fill="#E4CCFA"/><path d="M65.064 87.385c-.835.506-2.703 2.018-3.504 4.022-2.507-.913-7.522-1.463-7.522 3.638 0 6.377 9.024 1.37 10.025-1.135.8-2.003 2.335-4.52 3.002-5.528a578.97 578.97 0 0 0-2.001-.997Z" fill="#4D34B8"/><path d="m34.519 78.52-.032-.095-.022.008-.017.016.07.07ZM5.99 95.045l.035.094-.035-.094Zm0 20.531.044-.09-.018-.009-.02-.001-.006.1Zm75.075 0 .018.098-.018-.098Zm0-19.53.062-.078-.062.078Zm-27.027-14.02-.053.085.01.005.043-.09Zm11.026 5.359.044-.09-.044.09Zm-3.504 4.022-.034.094.09.033.037-.09-.093-.037Zm2.502 2.503-.092-.037.093.037Zm3.004-5.528.044-.09-.044.09ZM34.447 78.45c-3.159 3.16-13.29 10.898-28.492 16.502l.07.188c15.227-5.614 25.383-13.367 28.565-16.55l-.142-.142ZM5.956 94.951c-.588.217-1.157.701-1.686 1.37-.53.67-1.028 1.534-1.468 2.521-.88 1.974-1.54 4.452-1.79 6.893-.252 2.44-.097 4.853.663 6.693.762 1.846 2.136 3.12 4.31 3.248l.011-.2c-2.08-.122-3.397-1.333-4.136-3.124-.742-1.797-.9-4.173-.65-6.596.25-2.422.904-4.879 1.775-6.832.436-.977.924-1.825 1.442-2.479.518-.655 1.06-1.108 1.598-1.306l-.07-.188Zm-.01 20.715c3.439 1.678 11.312 3.682 23.776 4.266 12.466.585 29.533-.25 51.36-4.258l-.035-.196c-21.815 4.004-38.866 4.838-51.316 4.255-12.453-.584-20.295-2.587-23.697-4.247l-.087.18Zm75.137.008c.534-.098.989-.445 1.369-.966.38-.521.69-1.221.935-2.043.49-1.643.724-3.79.713-6.003-.012-2.214-.268-4.501-.763-6.425-.493-1.918-1.227-3.496-2.21-4.27l-.124.158c.928.73 1.65 2.251 2.14 4.162.49 1.905.745 4.175.757 6.376.01 2.201-.222 4.327-.704 5.945-.242.81-.544 1.487-.906 1.982-.361.495-.776.802-1.243.888l.036.196ZM34.55 78.614c2.977-.992 11.054-1.695 19.435 3.496l.106-.17c-8.436-5.224-16.575-4.525-19.604-3.515l.063.19Zm30.558 8.681a796.266 796.266 0 0 0-10.968-5.332l-.044-.021a1.545 1.545 0 0 1-.011-.005c-.002 0-.002-.001-.003-.002h-.001l-.043.09-.043.09.001.001.003.001.011.006.044.02.174.084.666.317a800.422 800.422 0 0 1 10.125 4.93l.089-.179Zm-.096.004c-.844.512-2.733 2.04-3.545 4.07l.186.075c.79-1.975 2.638-3.474 3.462-3.974l-.103-.17Zm-3.418 4.014c-1.262-.46-3.165-.832-4.76-.44-.799.197-1.526.588-2.052 1.261-.526.674-.844 1.62-.844 2.91h.2c0-1.258.31-2.157.802-2.787.492-.63 1.175-1 1.943-1.19 1.54-.379 3.398-.02 4.643.434l.068-.188Zm-7.656 3.732c0 1.619.575 2.547 1.484 2.956.896.404 2.085.288 3.284-.098 1.202-.388 2.433-1.054 3.427-1.782a9.404 9.404 0 0 0 1.284-1.113c.347-.368.607-.731.738-1.06l-.185-.075c-.119.297-.36.638-.698.998a9.2 9.2 0 0 1-1.257 1.089c-.98.717-2.192 1.373-3.37 1.753-1.184.381-2.313.479-3.14.106-.815-.367-1.367-1.205-1.367-2.774h-.2Zm27.189.923c-.916-.72-2.925-1.89-5.446-3.25-2.525-1.364-5.572-2.923-8.57-4.425l-.09.179c2.998 1.501 6.043 3.06 8.565 4.421 2.525 1.364 4.517 2.525 5.417 3.232l.124-.157ZM67.11 88.293c-.672-.337-1.341-.67-2.002-.998l-.089.18c.66.327 1.33.66 2.002.997l.09-.18Zm-2.955 5.654c.797-1.993 2.328-4.503 2.994-5.51l-.167-.11c-.668 1.01-2.208 3.534-3.012 5.546l.185.075Z" fill="#000"/><path d="M72.571 46.84c-23.223 20.03-48.215 11.149-58.058 4.639 2.354 5.452 9.315 13.844 20.02 16.666V78.52c1.82-.607 5.512-1.103 10.01-.243 2.927.56 6.195 1.695 9.51 3.748 0 0-1.5-2.962-2.002-5.007-.86-3.504 0-9.24 0-9.24C66.328 63.24 71.368 52.707 72.57 46.84Z" fill="#4D34B8"/><path d="M47.046 69.005a39.105 39.105 0 0 0 5.005-1.227m-12.513 1.227a29.095 29.095 0 0 1-5.005-.86m0 0c-10.705-2.822-17.666-11.214-20.02-16.666 9.844 6.51 34.835 15.39 58.058-4.64-1.203 5.868-6.243 16.4-20.52 20.94m-17.518.366V78.52c1.82-.607 5.512-1.103 10.01-.243 2.927.56 6.195 1.695 9.51 3.748 0 0-1.5-2.962-2.002-5.007-.86-3.504 0-9.24 0-9.24" stroke="#000" stroke-width=".2"/></svg>