<svg width="137" height="106" viewBox="0 0 137 106" fill="none" xmlns="http://www.w3.org/2000/svg"><path d="M79.842 77.807c2.441 1.687 7.117 3.772 12.424 3.793.939.004 1.897-.057 2.867-.196V70.146c-6.72.726-12.585-1.007-15.29-2.357v10.018Z" fill="#97FDF5"/><path d="M92.266 81.6c-5.307-.021-9.983-2.106-12.424-3.793l-10.034 3.34c10.944 7.763 18.416 6.363 22.458 3.4V81.6Z" fill="#97FDF5"/><path d="M95.133 81.404c-.97.139-1.928.2-2.867.196v2.948c1.323-.97 2.278-2.107 2.867-3.144Z" fill="#97FDF5"/><path d="M54.04 86.394c-3.027.954-8.602 5.534-6.69 16.22 21.789 2.29 23.006 2.355 44.916 2.385V84.548c-4.041 2.962-11.514 4.362-22.458-3.402l-15.769 5.248Z" fill="#455CE9"/><path d="M79.842 77.807V63.495c-17.584-8.014-20.706-25.92-20.069-33.871L22.502 60.633c5.343 0 10.442 6.172 9.248 12.88-.397 2.237-1.494 4.532-3.514 6.68l41.572.953 10.034-3.34Z" fill="#EEF7FF"/><path d="M79.842 63.495v4.294c2.706 1.35 8.57 3.083 15.291 2.357v-4.743c-8.792 1.145-13.857-.795-15.29-1.908Z" fill="#4F837F"/><path d="M103.734 67.789v-4.294c-2.676.763-6.849 1.59-8.601 1.908v4.743a27.7 27.7 0 0 0 7.44-1.855 27.67 27.67 0 0 0 1.161-.502Z" fill="#26306C"/><path fill-rule="evenodd" clip-rule="evenodd" d="m4.778 70.651 9.6-5.469c5.2 0 7.324 5.69 7.156 10.656L8.69 78.761l-3.912-8.11Z" fill="#66B2F9"/><path d="m10.99 83.532 8.924-1.909c.977-1.352 1.543-3.491 1.62-5.785L8.69 78.761l2.3 4.77Z" fill="#067FF5"/><path fill-rule="evenodd" clip-rule="evenodd" d="m21.534 75.838 10.216-2.325c1.194-6.708-3.905-12.88-9.248-12.88l-8.123 4.55c5.2 0 7.323 5.69 7.155 10.655Z" fill="#66B2F9"/><path d="m19.914 81.623 8.322-1.43c2.02-2.148 3.117-4.443 3.514-6.68l-10.216 2.325c-.077 2.294-.643 4.433-1.62 5.785Z" fill="#067FF5"/><path fill-rule="evenodd" clip-rule="evenodd" d="M102.573 78.615V68.291a27.7 27.7 0 0 1-7.44 1.855v11.258a18.464 18.464 0 0 0 7.44-2.789Z" fill="#455CE9"/><path d="M103.734 77.807V67.789a27.67 27.67 0 0 1-1.161.502v10.324c.389-.25.776-.52 1.161-.808Z" fill="#26306C"/><path fill-rule="evenodd" clip-rule="evenodd" d="M132.882 102.815c-10.423 2.03-30.205 2.199-40.616 2.184V84.548c1.323-.97 2.278-2.107 2.867-3.144a18.464 18.464 0 0 0 7.44-2.789c6.671 1.978 20.914 6.607 24.517 9.305 2.628 1.969 3.137 6.95 4.003 10.99.321 1.498 1.673 2.866 1.789 3.905Z" fill="#455CE9"/><path d="M135.749 102.137c.637-2.862.191-9.16-2.867-13.358s-29.148-10.972-29.148-10.972c-.385.288-.772.557-1.161.808 6.671 1.978 20.914 6.607 24.517 9.305 2.628 1.969 3.137 6.95 4.003 10.99.321 1.498 1.673 2.866 1.789 3.905a32.83 32.83 0 0 0 2.867-.678Z" fill="#26306C"/><path d="m79.842 63.495.062-.079-.01-.007-.01-.005-.042.091ZM54.04 86.394l.03.095h.002l-.032-.095Zm-6.69 16.22-.098.018.013.074.075.008.01-.1Zm56.385-39.119h.1v-.132l-.127.036.027.096ZM92.266 81.6v-.1.1Zm43.483 20.537.028.096.057-.017.013-.057-.098-.022ZM59.773 29.624l.1.008.019-.237-.183.152.064.077ZM4.778 70.65l-.05-.087-.08.046.04.084.09-.043Zm9.6-5.469-.048-.087.049.087Zm-3.388 18.35-.09.043.034.07.077-.016-.02-.097Zm121.892 19.283.019.098-.019-.098ZM127.09 87.92l-.06.08.06-.08Zm4.003 10.99-.098.021.098-.02ZM54.009 86.3c-3.076.97-8.678 5.599-6.758 16.333l.197-.036c-1.903-10.638 3.645-15.168 6.621-16.107l-.06-.19Zm25.776-8.41c2.455 1.697 7.15 3.79 12.48 3.81l.001-.2c-5.283-.02-9.94-2.097-12.367-3.774l-.114.164Zm12.481 27.01c-21.906-.03-23.12-.095-44.906-2.384l-.021.199c21.793 2.29 23.014 2.355 44.927 2.385v-.2Zm43.581-2.74c.322-1.447.369-3.75-.047-6.217-.416-2.466-1.296-5.106-2.837-7.222l-.162.118c1.517 2.083 2.389 4.69 2.802 7.138.412 2.448.364 4.724.049 6.139l.195.044Zm-2.884-13.439c-.395-.542-1.153-1.116-2.161-1.704-1.011-.59-2.285-1.2-3.725-1.814-2.88-1.227-6.432-2.469-9.885-3.578a268.806 268.806 0 0 0-9.307-2.79 274.566 274.566 0 0 0-3.832-1.047l-.219-.057a2.61 2.61 0 0 0-.056-.015l-.014-.004h-.004l-.026.096-.025.097h.005l.014.005.056.014.218.058a275.883 275.883 0 0 1 3.829 1.046c2.493.7 5.849 1.678 9.3 2.787 3.451 1.109 6.996 2.348 9.867 3.572 1.436.612 2.702 1.219 3.703 1.803 1.004.586 1.731 1.142 2.1 1.65l.162-.119Zm-53.02-10.913V67.789h-.2v10.018h.2Zm0-10.018v-4.294h-.2v4.294h.2Zm23.891 10.018V67.789h-.2v10.018h.2Zm0-10.018v-4.294h-.2v4.294h.2ZM92.266 81.7c.943.005 1.907-.056 2.881-.196l-.028-.198c-.965.138-1.918.199-2.853.195v.2ZM79.81 77.713l-10.035 3.34.063.19 10.035-3.34-.063-.19Zm-10.035 3.34L54.007 86.3l.063.19 15.768-5.248-.063-.19Zm25.257-10.906v11.258h.2V70.146h-.2Zm.2 0v-4.743h-.2v4.743h.2Zm-15.435-2.268c2.72 1.358 8.605 3.096 15.346 2.368l-.022-.2c-6.7.724-12.545-1.004-15.235-2.347l-.09.18ZM69.75 81.228c5.483 3.89 10.104 5.49 13.869 5.74 3.765.253 6.667-.845 8.706-2.34l-.118-.161c-2.002 1.467-4.858 2.55-8.575 2.302-3.718-.248-8.305-1.83-13.767-5.704l-.115.163Zm22.616 3.32V81.6h-.2v2.948h.2Zm2.68-3.194c-.582 1.025-1.528 2.152-2.84 3.113l.12.161c1.333-.978 2.298-2.125 2.894-3.175l-.174-.099Zm-2.78.246h-.1v2.948h.2V81.6h-.1Zm-.1 2.948v20.451h.2V84.547h-.2Zm.2 20.451V84.548h-.2v20.451h.2ZM79.781 63.574c.734.57 2.376 1.338 4.928 1.82 2.556.483 6.031.682 10.437.108l-.026-.198c-4.386.571-7.84.373-10.373-.106-2.536-.48-4.144-1.239-4.843-1.782l-.123.158Zm15.37 1.928c1.752-.318 5.93-1.146 8.611-1.91l-.055-.193c-2.671.762-6.84 1.588-8.592 1.906l.036.197Zm-66.917 14.79 41.571.954.005-.2-41.572-.954-.004.2ZM22.566 60.71 59.837 29.7l-.128-.153-37.271 31.009.128.154ZM19.93 81.722l8.322-1.431-.034-.197-8.322 1.43.034.198Zm2.522-21.176-8.123 4.549.098.174 8.123-4.549-.098-.175Zm-8.124 4.55-9.6 5.468.099.174 9.6-5.469-.099-.174Zm45.344-35.48c-.639 7.973 2.49 25.931 20.128 33.97l.083-.182c-17.531-7.99-20.647-25.844-20.011-33.772l-.2-.016Zm-39.78 51.91-8.924 1.908.042.195 8.924-1.908-.042-.195Zm2.609-20.793c2.633 0 5.216 1.522 6.995 3.884s2.746 5.554 2.155 8.879l.197.035c.602-3.384-.383-6.632-2.192-9.034-1.807-2.4-4.445-3.964-7.155-3.964v.2Zm9.15 12.763c-.394 2.216-1.481 4.494-3.489 6.628l.146.137c2.032-2.16 3.139-4.474 3.54-6.73l-.197-.035ZM4.688 70.694l3.912 8.11.18-.086-3.912-8.11-.18.086Zm3.912 8.11 2.3 4.771.18-.087-2.3-4.77-.18.087Zm5.779-13.522c2.556 0 4.357 1.396 5.503 3.415 1.149 2.023 1.636 4.668 1.552 7.138l.2.007c.084-2.497-.407-5.18-1.578-7.243-1.173-2.067-3.033-3.517-5.677-3.517v.2Zm7.133 10.459L8.667 78.663l.045.196 12.844-2.923-.044-.195Zm10.216-2.325L21.512 75.74l.044.195 10.217-2.325-.045-.195Zm-11.733 8.266c.993-1.375 1.561-3.536 1.64-5.84l-.2-.007c-.078 2.283-.641 4.4-1.602 5.73l.162.117Zm72.27 23.417c10.408.015 30.201-.154 40.636-2.186l-.038-.196c-10.412 2.027-30.183 2.197-40.597 2.182v.2Zm40.636-2.186a33.214 33.214 0 0 0 2.876-.68l-.056-.192a32.81 32.81 0 0 1-2.858.676l.038.196Zm-37.754-21.41a18.558 18.558 0 0 0 7.48-2.804l-.109-.168a18.354 18.354 0 0 1-7.4 2.774l.03.198Zm7.48-2.804c.391-.252.78-.522 1.167-.812l-.12-.16c-.383.287-.768.554-1.156.804l.109.168Zm24.523 9.141c-.911-.682-2.486-1.481-4.433-2.326-1.949-.845-4.278-1.74-6.701-2.61-4.847-1.743-10.078-3.396-13.415-4.385l-.057.192c3.335.988 8.561 2.64 13.404 4.38 2.422.871 4.746 1.764 6.69 2.607 1.946.844 3.502 1.635 4.392 2.302l.12-.16Zm-23.458-20.142a26.32 26.32 0 0 1-1.157.5l.075.186c.389-.158.777-.326 1.166-.505l-.084-.181Zm-1.157.5a27.604 27.604 0 0 1-7.413 1.849l.022.199a27.797 27.797 0 0 0 7.466-1.862l-.075-.186Zm.138 10.417V68.291h-.2v10.324h.2Zm30.309 24.189c-.031-.277-.144-.57-.294-.871-.15-.302-.342-.621-.538-.949-.394-.662-.803-1.365-.959-2.095l-.196.042c.164.768.592 1.498.983 2.155.197.331.385.642.531.936.146.294.247.562.274.804l.199-.022Zm-1.791-3.915c-.431-2.011-.777-4.278-1.342-6.278-.565-2-1.357-3.766-2.699-4.77l-.12.16c1.286.963 2.063 2.672 2.626 4.664.563 1.993.904 4.237 1.339 6.266l.196-.042Z" fill="#000"/><path d="M13.246 74.08c1.978 3.42 1.402 7.397-1.216 8.906-2.619 1.51-6.356.019-8.334-3.402-1.978-3.42-1.402-7.397 1.216-8.906 2.618-1.51 6.356-.019 8.334 3.401Z" fill="#03498D" stroke="#000" stroke-width=".2"/><path d="M11.28 75.212c1.173 2.027.824 4.368-.709 5.251-1.533.884-3.738.016-4.91-2.011-1.173-2.028-.823-4.368.71-5.252 1.533-.884 3.738-.015 4.91 2.012Z" fill="#97FDF5" stroke="#000" stroke-width=".2"/><path d="M124.281 33.44c0 17.916-14.547 32.44-32.493 32.44-17.945 0-32.493-14.524-32.493-32.44C59.295 15.524 73.843 1 91.788 1c17.946 0 32.493 14.524 32.493 32.44Z" fill="#455CE9"/><path d="M91.966 55.184c-1.53-28.624-22.839-29.218-32.714-25.083-.765 7.251 1.814 14.27 2.61 16.019 7.645 9.923 23.255 10.177 30.104 9.064Z" fill="#97FDF5"/><path d="M91.966 55.184c-6.85 1.113-22.459.859-30.104-9.064 3.184 7.831 13.191 21.819 33.205 19.82-.796-.954-3.101-4.268-3.101-10.756Z" fill="#4F837F"/><path d="M91.966 55.184c0 6.488 2.305 9.802 3.101 10.756 21.503-2.385 26.304-17.71 28.693-25.344-7.646 11.068-24.786 14.429-31.794 14.588Z" fill="#26306C"/><path d="m59.252 30.1-.1-.012v.002l.1.01Zm35.815 35.84.01.1h.001l-.01-.1Zm28.693-25.344.095.03.003-.01.001-.01-.099-.01ZM59.29 30.193c4.918-2.06 12.684-2.94 19.406.255 6.712 3.19 12.407 10.457 13.17 24.741l.2-.01c-.766-14.34-6.49-21.682-13.285-24.911-6.784-3.225-14.61-2.335-19.568-.26l.077.185Zm32.66 24.892c-3.414.555-9.017.77-14.718-.392-5.7-1.163-11.488-3.699-15.29-8.634l-.16.122c3.844 4.988 9.684 7.54 15.41 8.708 5.728 1.167 11.355.952 14.79.394l-.032-.198Zm-29.997-9.007c-.793-1.74-3.364-8.74-2.602-15.967l-.199-.02c-.767 7.276 1.819 14.313 2.619 16.07l.182-.083Zm-.184.08c3.193 7.852 13.232 21.886 33.308 19.882l-.02-.2C75.106 67.834 65.13 53.894 61.955 46.083l-.186.075Zm33.375 19.718c-.783-.938-3.078-4.23-3.078-10.692h-.2c0 6.514 2.315 9.85 3.124 10.82l.154-.128Zm-3.176-10.592c3.515-.08 9.563-.962 15.69-3.21 6.127-2.246 12.345-5.863 16.184-11.421l-.165-.114c-3.806 5.51-9.98 9.108-16.088 11.348-6.106 2.24-12.132 3.118-15.626 3.197l.005.2Zm31.696-14.718c-1.194 3.817-2.987 9.54-7.16 14.607-4.17 5.063-10.722 9.478-21.448 10.668l.022.199c10.777-1.196 17.377-5.636 21.58-10.74 4.201-5.1 6.003-10.858 7.197-14.674l-.191-.06ZM59.351 30.113C61.971 9.9 79.237-.089 95.261 1.28c8.01.683 15.704 4.206 21.097 10.705 5.394 6.499 8.495 15.982 7.302 28.603l.199.018c1.197-12.663-1.914-22.202-7.347-28.749-5.432-6.546-13.178-10.09-21.235-10.777C79.166-.296 61.79 9.751 59.153 30.088l.198.025Z" fill="#000"/></svg>