<svg width="225" height="110" viewBox="0 0 225 110" fill="none" xmlns="http://www.w3.org/2000/svg"><path d="m152.246 63.915 34.391-10.363-1.849-.74-28.844 8.512-3.698 2.59Z" fill="#A2AEF4"/><path d="M97.516 1 1 70.576l2.848.908L97.516 3.96V1Z" fill="#455CE9"/><path fill-rule="evenodd" clip-rule="evenodd" d="M1 73.537v-2.961l2.848.908 79.616 25.368 21.818-1.85 85.165-61.596L97.517 3.96V1l95.776 30.347v2.96l-88.011 63.655-21.818 1.85L1 73.538Z" fill="#455CE9"/><path d="m83.464 96.852 21.818-1.85 85.165-61.596L97.517 3.96 3.847 71.484l79.616 25.368Z" fill="#E1FDF9"/><path d="m97.516 1 .03-.095L97.5.889l-.041.03.058.081ZM1 70.576l-.058-.081-.042.03v.051H1Zm192.293-39.229h.1v-.073l-.069-.022-.031.095ZM1 73.537H.9v.073l.07.022.03-.095Zm82.464 26.276-.03.095.019.006.02-.002-.009-.1Zm21.818-1.85.009.099.027-.002.023-.017-.059-.08Zm88.011-63.655.059.08.041-.03v-.05h-.1ZM3.848 71.484l-.03.095.03-.095ZM97.458.919.942 70.495l.116.162L97.575 1.081 97.458.92ZM83.473 96.952l21.818-1.85-.017-.2-21.818 1.85.017.2Zm109.851-65.7L97.547.905l-.06.19 95.776 30.347.061-.19ZM1.1 73.537v-2.961H.9v2.96h.2Zm82.264 23.315v2.96h.2v-2.96h-.2Zm.13 2.865L1.03 73.442l-.06.191 82.464 26.276.06-.19Zm-.021.195 21.818-1.85-.017-.2-21.818 1.851.017.2Zm21.909-1.95v-2.96h-.2v2.96h.2Zm87.853-63.735L105.224 97.88l.117.162 88.011-63.654-.117-.162Zm-.042-2.88v2.96h.2v-2.96h-.2ZM97.416 1v2.96h.2V1h-.2Zm.042 2.88L3.79 71.402l.117.163L97.575 4.042l-.117-.162ZM3.878 71.388l-2.848-.907-.06.19 2.848.908.06-.19Zm-.06.19 79.616 25.37.06-.191L3.88 71.388l-.061.19ZM105.34 95.084l85.164-61.596-.117-.162-85.164 61.596.117.162Zm85.136-61.773L97.547 3.865l-.06.191 92.93 29.445.06-.19Zm.028.177 2.847-2.059-.117-.162-2.847 2.059.117.162Z" fill="#000"/><path d="m39.459 72.427 1.11 3.7m2.218-2.221-5.547 1.48m9.245-8.881L97.147 82.79M43.896 69.096l50.662 16.283M36.5 75.757l50.662 16.284M71.63 48.74l41.788 13.694m34.76-28.126-7.396 5.55 13.313 4.442-1.109 1.11 12.573-2.22-1.11-4.071-1.109 1.48-15.162-6.291Zm-11.833-.001-4.068 1.85-2.588-4.07-2.219 1.11-2.589-4.44-8.505 1.85-3.328-3.701-3.328 1.85-3.328-4.81-5.738 1.632m0 0-1.658 1.328 37.349 12.213 7.766-5.922-37.719-12.213-5.738 4.594Z" stroke="#000" stroke-width=".2"/><ellipse cx="106.022" cy="23.945" rx="1.479" ry=".74" fill="#000"/><ellipse cx="112.678" cy="26.906" rx="1.479" ry=".74" fill="#000"/><ellipse cx="109.72" cy="28.386" rx="1.479" ry=".74" fill="#000"/><ellipse rx="1.479" ry=".74" transform="matrix(1 0 0 -1 116.376 30.607)" fill="#000"/><ellipse rx="1.479" ry=".74" transform="matrix(1 0 0 -1 124.511 29.127)" fill="#000"/><ellipse rx="1.479" ry=".74" transform="matrix(1 0 0 -1 127.47 33.567)" fill="#000"/><ellipse rx="1.479" ry=".74" transform="matrix(1 0 0 -1 129.689 32.087)" fill="#000"/><ellipse rx="1.479" ry=".74" transform="matrix(1 0 0 -1 132.647 35.788)" fill="#000"/><ellipse rx="1.479" ry=".74" transform="matrix(1 0 0 -1 136.345 34.308)" fill="#000"/><path d="M165.559 51.331 72.37 22.095m84.683 35.528L63.865 28.387m83.574 35.898L54.251 35.048m65.823 49.222L26.886 55.032M74.59 46.52l35.869 11.843" stroke="#000" stroke-width=".2"/><path d="m92.71 10.622 4.806-3.33L91.6 5.44l-4.808 3.33 5.917 1.85Z" fill="#E4CCFA" stroke="#000" stroke-width=".2"/><path d="m86.423 12.103 83.573 26.276m2.589-2.22L89.011 10.251m14.052 7.033L21.339 76.868" stroke="#000" stroke-width=".2"/><path d="M95.567 17.654c0 .325-.15.642-.436.939-.288.297-.709.57-1.237.801-1.055.462-2.52.75-4.143.75-1.624 0-3.089-.288-4.144-.75-.528-.231-.949-.504-1.236-.801-.287-.297-.437-.614-.437-.94 0-.324.15-.64.437-.938.287-.298.708-.57 1.236-.801 1.055-.463 2.52-.75 4.144-.75 1.623 0 3.088.287 4.143.75.528.23.95.503 1.237.8.287.298.436.615.436.94ZM72.64 33.938c0 .324-.15.641-.437.938-.287.298-.708.57-1.236.802-1.055.462-2.52.75-4.144.75-1.623 0-3.088-.288-4.143-.75-.528-.231-.949-.504-1.236-.802-.287-.297-.437-.614-.437-.938 0-.325.15-.642.437-.94.287-.297.708-.57 1.236-.8 1.055-.463 2.52-.751 4.143-.751 1.624 0 3.089.288 4.144.75.528.231.949.504 1.236.802.287.297.437.614.437.938ZM63.765 40.6c0 .324-.15.64-.437.938-.287.298-.708.57-1.236.801-1.055.462-2.52.75-4.144.75-1.623 0-3.088-.288-4.143-.75-.528-.23-.949-.503-1.236-.801-.288-.297-.437-.614-.437-.939 0-.324.15-.642.437-.939.287-.297.708-.57 1.236-.801 1.055-.462 2.52-.75 4.143-.75 1.624 0 3.089.288 4.144.75.528.231.949.504 1.236.801.287.297.437.615.437.94ZM44.536 53.922c0 .325-.15.642-.437.939-.288.298-.708.57-1.236.801-1.056.462-2.52.75-4.144.75-1.623 0-3.088-.288-4.144-.75-.527-.23-.948-.503-1.236-.801-.287-.297-.437-.614-.437-.939 0-.325.15-.642.437-.939.288-.297.709-.57 1.236-.801 1.056-.462 2.52-.75 4.144-.75 1.623 0 3.088.288 4.144.75.528.231.948.504 1.236.801.287.297.437.614.437.94Z" fill="#E4CCFA" stroke="#000" stroke-width=".2"/><path d="m66.084 52.812 38.459 12.213M69.042 50.591l41.417 13.323" stroke="#000" stroke-width=".2"/><path d="M100.825 34.815c-.012.104-.098.215-.289.318-.188.102-.46.185-.799.243-.676.117-1.599.128-2.605.005-1.007-.123-1.9-.357-2.529-.633-.314-.138-.558-.284-.716-.428-.161-.147-.217-.275-.204-.379.012-.104.097-.214.289-.318.188-.101.46-.185.799-.243.676-.116 1.599-.128 2.605-.005 1.007.124 1.9.357 2.528.633.316.138.559.285.717.429.161.146.217.274.204.378Zm14.053 4.442c-.013.104-.098.214-.29.318-.188.101-.459.185-.798.243-.677.116-1.6.128-2.606.005-1.007-.123-1.9-.357-2.528-.633-.315-.138-.559-.284-.717-.429-.161-.146-.217-.274-.204-.378.013-.104.098-.215.289-.318.188-.102.46-.185.799-.243.676-.117 1.599-.128 2.606-.005 1.006.123 1.899.357 2.528.633.315.138.558.284.716.429.161.146.217.274.205.378Zm-8.876 6.661c-.012.104-.097.215-.289.318-.188.102-.46.185-.799.244-.676.116-1.599.127-2.605.004-1.007-.123-1.9-.357-2.528-.633-.315-.138-.559-.284-.717-.428-.16-.147-.217-.275-.204-.379.012-.104.098-.214.289-.317.188-.102.46-.186.799-.244.676-.116 1.599-.128 2.606-.005 1.006.124 1.899.357 2.528.633.315.138.558.285.716.429.161.146.217.274.204.378ZM61.627 60.721c-.013.104-.098.215-.29.318-.188.102-.459.185-.798.244-.677.116-1.6.127-2.606.004-1.007-.123-1.9-.357-2.528-.632-.315-.139-.558-.285-.717-.43-.16-.146-.216-.273-.204-.377.013-.105.098-.215.29-.318.188-.102.46-.186.798-.244.677-.116 1.6-.128 2.606-.004 1.007.123 1.9.357 2.528.632.315.139.558.285.717.43.16.146.217.273.204.377Zm14.053 4.441c-.013.104-.099.215-.29.318-.188.102-.46.185-.799.244-.676.116-1.599.127-2.606.004-1.006-.123-1.899-.357-2.528-.632-.315-.139-.558-.285-.716-.43-.161-.146-.217-.273-.204-.377.012-.105.097-.215.289-.318.188-.102.46-.186.799-.244.676-.116 1.599-.127 2.605-.004 1.007.123 1.9.356 2.528.632.315.138.559.285.717.43.16.145.217.273.204.377Z" fill="#4D34B8" stroke="#000" stroke-width=".2"/><path d="M91.95 41.477c-.013.104-.098.215-.289.318-.188.102-.46.185-.799.244-.676.116-1.599.127-2.606.004-1.006-.123-1.899-.357-2.528-.633-.315-.138-.558-.284-.716-.428-.161-.147-.217-.274-.204-.379.012-.104.097-.214.289-.317.188-.102.46-.186.798-.244.677-.116 1.6-.128 2.606-.005 1.007.124 1.9.357 2.528.633.315.138.559.285.717.429.16.147.217.274.204.378Z" fill="#C9F0C9" stroke="#000" stroke-width=".2"/><path d="M90.471 69.603c-.013.105-.098.215-.29.318-.188.102-.459.186-.798.244-.676.116-1.6.127-2.606.004-1.007-.123-1.9-.356-2.528-.632-.315-.138-.558-.285-.717-.43-.16-.146-.216-.273-.204-.377.013-.104.098-.215.29-.318.188-.102.46-.186.798-.244.677-.116 1.6-.127 2.606-.004 1.007.123 1.9.357 2.528.632.315.138.559.285.717.43.16.146.217.273.204.377Z" fill="#000" stroke="#000" stroke-width=".2"/><path d="M105.263 74.044c-.013.104-.098.215-.289.318-.189.102-.46.185-.799.243-.677.117-1.599.128-2.606.005s-1.9-.357-2.528-.633c-.315-.138-.558-.284-.717-.428-.16-.147-.216-.275-.204-.379.013-.104.098-.214.29-.317.188-.102.46-.186.798-.244.677-.116 1.599-.128 2.606-.005 1.007.124 1.899.357 2.528.633.315.138.558.285.717.429.16.146.217.274.204.378Zm24.406-29.607c-.012.104-.098.215-.289.318-.188.102-.46.185-.799.243-.676.117-1.599.128-2.606.005-1.006-.123-1.899-.357-2.528-.633-.315-.138-.558-.284-.716-.428-.161-.147-.217-.275-.204-.379.012-.104.097-.214.289-.317.188-.102.46-.186.798-.244.677-.116 1.6-.128 2.606-.005 1.007.124 1.9.357 2.528.633.315.138.559.285.717.429.161.146.217.274.204.378Z" fill="#C9F0C9" stroke="#000" stroke-width=".2"/><path d="M145.94 49.619c-.012.104-.098.214-.289.317-.188.102-.46.186-.799.244-.676.116-1.599.128-2.606.005-1.006-.124-1.899-.357-2.528-.633-.315-.138-.558-.285-.716-.429-.161-.146-.217-.274-.204-.378.012-.104.097-.215.289-.318.188-.102.46-.185.798-.243.677-.117 1.6-.128 2.606-.005 1.007.123 1.9.357 2.528.633.315.138.559.284.717.428.161.147.217.274.204.379Z" fill="#4D34B8" stroke="#000" stroke-width=".2"/><path d="m145.59 65.765-9.615 3.33-.37-1.48 12.573-3.7-2.588 1.85Z" fill="#C6D797"/><path d="m169.996 39.119 4.068 3.7c0-.295 1.233-.123 1.479-.37l-5.547-4.81-53.25 15.543 1.479 1.11 51.771-15.173Z" fill="#455CE9" stroke="#000" stroke-width=".2"/><path d="m223.616 85.38-76.177 24.055 12.573-5.181 60.646-19.615 2.958.74Z" fill="#CCC8C4"/><path d="m147.439 109.805 9.614-3.701-15.161-8.882-12.573-10.732-3.328-3.546-5.917 4.286 27.365 22.575Z" fill="#CCC8C4"/><path d="M120.074 84.27v2.96l5.917-4.286-1.536-1.635-4.381 2.96Z" fill="#26306C"/><path d="m109.72 75.387 10.354 8.882 4.381-2.96-6.6-7.032-8.135 1.11Z" fill="#C5D696"/><path d="M128.209 78.348 35.021 49.111" stroke="#000" stroke-width=".2"/><path d="M159.277 87.149c1.519 4.522 1.958 8.926 1.444 12.388-.514 3.468-1.979 5.961-4.236 6.72-2.257.76-4.928-.341-7.432-2.794-2.5-2.448-4.808-6.223-6.327-10.745-1.52-4.522-1.959-8.926-1.445-12.389.515-3.468 1.979-5.96 4.236-6.72 2.257-.76 4.929.342 7.433 2.794 2.499 2.449 4.808 6.224 6.327 10.746Z" fill="#455CE9" stroke="#000" stroke-width=".2"/><path d="M157.151 87.858c1.528 4.547 1.969 8.975 1.453 12.457-.518 3.488-1.99 5.994-4.26 6.758-2.27.764-4.957-.343-7.475-2.81-2.513-2.462-4.834-6.258-6.362-10.805-1.528-4.547-1.969-8.975-1.453-12.457.518-3.488 1.99-5.994 4.26-6.758 2.27-.764 4.957.343 7.475 2.81 2.513 2.462 4.834 6.258 6.362 10.805Z" fill="#455CE9" fill-opacity=".5" stroke="#000" stroke-width=".2"/><path d="M134.871 64.822c1.519 4.522 1.958 8.926 1.444 12.388-.515 3.469-1.979 5.961-4.236 6.72-2.257.76-4.929-.34-7.433-2.793-2.499-2.449-4.808-6.224-6.327-10.746-1.519-4.522-1.958-8.926-1.444-12.388.514-3.468 1.979-5.961 4.236-6.72 2.257-.76 4.929.341 7.432 2.794 2.5 2.448 4.808 6.223 6.328 10.745Z" fill="#455CE9" stroke="#000" stroke-width=".2"/><path d="M132.744 65.53c1.528 4.548 1.97 8.976 1.453 12.458-.517 3.487-1.99 5.994-4.26 6.758-2.27.764-4.956-.344-7.474-2.81-2.514-2.462-4.835-6.258-6.363-10.805-1.527-4.547-1.969-8.976-1.452-12.457.517-3.488 1.99-5.995 4.26-6.758 2.27-.764 4.956.343 7.474 2.81 2.514 2.461 4.835 6.257 6.362 10.805Z" fill="#455CE9" fill-opacity=".5" stroke="#000" stroke-width=".2"/><path d="m109.72 55.773 38.089 34.788 7.026-2.22-1.48-1.366-36.609-33.793-7.026 2.59Z" fill="#455CE9"/><path d="m154.835 88.34 52.511-15.173 4.437 3.33 1.109-.74-4.807-4.81-54.73 16.028 1.48 1.365Z" fill="#455CE9"/><path fill-rule="evenodd" clip-rule="evenodd" d="M147.809 92.041 109.72 57.253v5.181l38.089 34.418v-4.81Z" fill="#26306C"/><path d="M147.809 90.56 109.72 55.774v1.48l38.089 34.788v-1.48Z" fill="#A7BFA7"/><path fill-rule="evenodd" clip-rule="evenodd" d="m154.465 89.844-6.656 2.197v4.811c1.596.114 4.986-1.186 6.656-7.008Z" fill="#26306C"/><path d="m154.835 88.34-7.026 2.22v1.481l6.656-2.197c.135-.47.259-.972.37-1.504Z" fill="#A7BFA7"/><path d="m109.72 55.773-.035-.094-.065.024v.07h.1Zm7.026-2.59.068-.074-.045-.042-.058.021.035.094Zm31.063 43.67-.067.073.025.023.034.003.008-.1Zm-38.089-34.42h-.1v.045l.033.03.067-.075Zm97.626 10.733.06-.08-.04-.03-.048.014.028.096Zm.739-2.22.071-.072-.042-.041-.057.016.028.096Zm3.698 5.55-.06.08.057.043.059-.04-.056-.082Zm1.109-.74.056.084.101-.068-.086-.086-.071.07Zm-58.427 14.087.096.028-.096-.028Zm-44.813-33.997 38.089 34.788.135-.148-38.089-34.788-.135.148Zm38.187 34.81 7.026-2.221-.06-.191-7.027 2.22.061.191Zm-31.128-37.569-7.026 2.59.069.189 7.026-2.591-.069-.188Zm31.165 43.69L109.787 62.36l-.134.148 38.089 34.418.134-.148Zm6.986-8.342 52.511-15.173-.055-.192-52.511 15.173.055.192Zm.04-.17-1.479-1.365-.135.147 1.479 1.366.135-.147Zm-1.479-1.365-36.609-33.79-.136.147 36.61 33.792.135-.147Zm54.634-16.05-54.73 16.028.057.192 54.729-16.029-.056-.192Zm-.771 2.396 4.437 3.33.12-.16-4.437-3.33-.12.16Zm5.677 2.44-4.807-4.811-.142.14 4.808 4.812.141-.141Zm-1.124.894 1.109-.74-.111-.167-1.109.74.111.167Zm-64.13 13.98v1.48h.2v-1.48h-.2Zm0 1.48v4.811h.2v-4.81h-.2ZM109.82 62.434v-5.18h-.2v5.18h.2Zm0-5.18v-1.481h-.2v1.48h.2Zm38.056 34.713L109.787 57.18l-.135.148 38.089 34.788.135-.148Zm-.075 4.985c1.657.118 5.081-1.227 6.76-7.08l-.192-.055c-1.661 5.79-5.017 7.045-6.553 6.935l-.015.2Zm6.76-7.08c.136-.474.26-.977.372-1.511l-.196-.041c-.111.53-.234 1.028-.368 1.497l.192.055Zm-6.721 2.264 6.656-2.197-.062-.19-6.657 2.197.063.19Z" fill="#000"/><path d="M211.151 75.804c-3.846-4.441 6.656 2.22 6.656 2.22l4.437 2.96s2.589 1.851 1.48 3.702c-1.16 1.933-5.178-1.48-5.178-1.48s-3.55-2.961-7.395-7.402ZM175.173 43.93c-3.845-4.441 6.657 2.22 6.657 2.22l4.437 2.96s2.589 1.851 1.479 3.702c-1.159 1.933-5.177-1.48-5.177-1.48s-3.55-2.961-7.396-7.402Z" fill="#000" stroke="#000"/><path d="m146.329 65.395 6.287-1.48 2.588-2.221-7.026 2.22-1.849 1.48Z" fill="#26306C"/></svg>